<svg xmlns="http://www.w3.org/2000/svg" width="724.7" height="137.1" viewBox="0 0 724.7 137.1"><defs><style>.cls-1{fill:#5fb5fe;}.cls-2{fill:#fff;}</style></defs><g id="Layer_2" data-name="Layer 2"><g id="Layer_1-2" data-name="Layer 1"><g id="work"><path class="cls-1" d="M191.7,8.3l.1,19.3a3.12,3.12,0,0,1-4.6,2.7,27.54,27.54,0,0,0-13.7-4c-8.2,0-11.6,2.4-17.1,6.4-6.9,5-15.4,11.1-31.5,11.1s-24.6-6.1-31.5-11.1c-5.6-4-8.9-6.4-17.1-6.4s-11.5,2.4-17.1,6.4c-6.9,5-15.4,11.1-31.5,11.1A46.42,46.42,0,0,1,4.8,38.3,9.1,9.1,0,0,1,0,30.2V12.5A4.61,4.61,0,0,1,7.2,8.7c1.2.8,2.3,1.6,3.4,2.4,5.6,4,8.9,6.4,17.1,6.4s11.6-2.4,17.1-6.4C51.7,6.1,60.2,0,76.3,0s24.6,6.2,31.5,11.1c5.6,4,8.9,6.4,17.1,6.4s11.6-2.4,17.1-6.4C148.9,6.1,157.4,0,173.5,0a49.82,49.82,0,0,1,13.8,2.1A6.59,6.59,0,0,1,191.7,8.3Z"/><path class="cls-1" d="M191.7,101.6l.1,19.3a3.12,3.12,0,0,1-4.6,2.7,27.54,27.54,0,0,0-13.7-4c-8.2,0-11.6,2.4-17.1,6.4-6.9,5-15.4,11.1-31.5,11.1s-24.6-6.2-31.5-11.1c-5.6-4-8.9-6.4-17.1-6.4S64.7,122,59.2,126c-6.9,5-15.4,11.1-31.5,11.1a46.42,46.42,0,0,1-22.9-5.5A9.1,9.1,0,0,1,0,123.5V105.8A4.61,4.61,0,0,1,7.2,102c1.2.8,2.3,1.6,3.4,2.4,5.6,4,8.9,6.4,17.1,6.4s11.6-2.4,17.1-6.4c6.9-5,15.4-11.1,31.5-11.1s24.6,6.2,31.5,11.1c5.6,4,8.9,6.4,17.1,6.4s11.6-2.4,17.1-6.4c6.9-5,15.4-11.1,31.5-11.1a49.82,49.82,0,0,1,13.8,2.1A6.59,6.59,0,0,1,191.7,101.6Z"/><path class="cls-2" d="M151.5,56.7a2.82,2.82,0,0,0-4.3-2.4c-1.9,1.2-3.6,2.5-5.2,3.6-5.6,4-8.9,6.4-17.1,6.4s-11.6-2.4-17.1-6.4c-6.9-5-15.4-11.1-31.5-11.1S51.7,53,44.8,57.9c-5.6,4-8.9,6.4-17.1,6.4s-11.6-2.4-17.1-6.4c-1-.8-2.1-1.5-3.2-2.3A4.75,4.75,0,0,0,0,59.5V77a9.3,9.3,0,0,0,4.8,8.1c5.6,3.1,12.8,5.5,22.9,5.5,16.1,0,24.6-6.2,31.5-11.1,5.6-4,8.9-6.4,17.1-6.4s11.6,2.4,17.1,6.4c6.9,5,15.4,11.1,31.5,11.1,9.4,0,16.2-2.1,21.6-4.9a9.25,9.25,0,0,0,5-8.2Z"/><path class="cls-2" d="M407.8,118.3H377.1l-34.2-99h26.3l23.3,72.9,23.3-72.9h26.3Z"/><path class="cls-2" d="M455,105.5c-10.7-9.9-16-22.1-16-36.7s5.4-26.8,16-36.7,23.6-14.9,38.7-14.9,28,5,38.6,14.9,16.1,22.1,16.1,36.7-5.4,26.8-16.1,36.7-23.6,14.8-38.6,14.8C478.5,120.3,465.6,115.4,455,105.5Zm60.4-15.4c5.9-5.4,8.9-12.5,8.9-21.4s-2.9-16-8.9-21.4a31.07,31.07,0,0,0-21.7-8.1c-8.6,0-15.9,2.7-21.8,8.1S463,59.8,463,68.7s2.9,16,8.9,21.4a31.32,31.32,0,0,0,21.8,8.1C502.3,98.2,509.5,95.5,515.4,90.1Z"/><path class="cls-2" d="M635.5,118.3H608.2L590.4,89.7l-17.7,28.6H545.3l31.4-50.8L546.8,19.2h27.3ZM609.2,59.2,595.5,37.1l11.1-17.9H634Z"/><path class="cls-2" d="M697.6,118.3H673.5V41h-27V19.3h78.2V41.1h-27v77.2Z"/><path class="cls-2" d="M271.9,98.5h67.3l-11,20H252.5V19.1h79.3l6,19.9h-66V58.6H318V78.1H271.8V98.5Z"/></g></g></g></svg>