<svg width="220" height="221" viewBox="0 0 220 221" fill="none" xmlns="http://www.w3.org/2000/svg">
<path d="M186.419 158.901C187.808 161.328 187.803 164.31 186.404 166.732L168.214 198.239C165.875 202.29 161.552 204.787 156.873 204.787H63.1223C58.4443 204.787 54.1207 202.291 51.7816 198.239L37.3481 173.238C36.3401 171.492 37.6002 169.31 39.6164 169.31L140.109 169.312C146.15 169.312 149.931 162.778 146.921 157.54L121.294 112.946C120.362 111.324 120.365 109.328 121.304 107.709L137.05 80.5507C138.062 78.8045 140.586 78.8116 141.589 80.5635L186.419 158.901ZM43.69 107.013C40.6405 112.251 44.4194 118.824 50.4806 118.823L102.001 118.821C103.876 118.821 105.608 119.824 106.543 121.449L122.01 148.362C123.014 150.108 121.754 152.286 119.74 152.286H29.7873C26.9802 152.286 24.3863 150.788 22.9828 148.357L4.9073 117.049C2.5682 112.997 2.56847 108.005 4.9073 103.954L51.7816 22.7605C54.1207 18.7093 58.4443 16.2132 63.1223 16.2129H91.9957C94.016 16.2129 95.2756 18.4036 94.2591 20.1496L43.69 107.013ZM156.873 16.2129C161.551 16.2129 165.875 18.7095 168.214 22.7605L215.091 103.954C217.43 108.005 217.43 112.997 215.091 117.049L200.79 141.813C199.78 143.563 197.253 143.558 196.249 141.804L146.203 54.3521C143.195 49.0965 135.623 49.0751 132.586 54.3136L106.569 99.1865C105.632 100.803 103.905 101.797 102.037 101.797L70.9792 101.795C68.9589 101.795 67.6995 99.6044 68.7159 97.8584L113.975 20.1169C115.382 17.6998 117.968 16.2129 120.765 16.2129H156.873Z" fill="white"/>
<path d="M186.419 158.901C187.808 161.328 187.803 164.31 186.404 166.732L168.214 198.239C165.875 202.29 161.552 204.787 156.873 204.787H63.1223C58.4443 204.787 54.1207 202.291 51.7816 198.239L37.3481 173.238C36.3401 171.492 37.6002 169.31 39.6164 169.31L140.109 169.312C146.15 169.312 149.931 162.778 146.921 157.54L121.294 112.946C120.362 111.324 120.365 109.328 121.304 107.709L137.05 80.5507C138.062 78.8045 140.586 78.8116 141.589 80.5635L186.419 158.901ZM43.69 107.013C40.6405 112.251 44.4194 118.824 50.4806 118.823L102.001 118.821C103.876 118.821 105.608 119.824 106.543 121.449L122.01 148.362C123.014 150.108 121.754 152.286 119.74 152.286H29.7873C26.9802 152.286 24.3863 150.788 22.9828 148.357L4.9073 117.049C2.5682 112.997 2.56847 108.005 4.9073 103.954L51.7816 22.7605C54.1207 18.7093 58.4443 16.2132 63.1223 16.2129H91.9957C94.016 16.2129 95.2756 18.4036 94.2591 20.1496L43.69 107.013ZM156.873 16.2129C161.551 16.2129 165.875 18.7095 168.214 22.7605L215.091 103.954C217.43 108.005 217.43 112.997 215.091 117.049L200.79 141.813C199.78 143.563 197.253 143.558 196.249 141.804L146.203 54.3521C143.195 49.0965 135.623 49.0751 132.586 54.3136L106.569 99.1865C105.632 100.803 103.905 101.797 102.037 101.797L70.9792 101.795C68.9589 101.795 67.6995 99.6044 68.7159 97.8584L113.975 20.1169C115.382 17.6998 117.968 16.2129 120.765 16.2129H156.873Z" fill="url(#paint0_linear_11038_5123)"/>
<defs>
<linearGradient id="paint0_linear_11038_5123" x1="110" y1="16.1747" x2="110" y2="251.932" gradientUnits="userSpaceOnUse">
<stop stop-color="#165DFF"/>
<stop offset="1" stop-color="#37DEFF"/>
</linearGradient>
</defs>
</svg>
